<svg width="23" height="20" viewBox="0 0 23 20" fill="none" xmlns="http://www.w3.org/2000/svg">
<path d="M8.07373 14.5869H19.4702C19.8511 14.5869 20.1831 14.2744 20.1831 13.8545C20.1831 13.4345 19.8511 13.122 19.4702 13.122H8.23975C7.68311 13.122 7.34131 12.7314 7.25342 12.1357L5.65186 1.26661C5.5542 0.514649 5.28076 0.133789 4.28467 0.133789H0.856933C0.466308 0.133789 0.134277 0.475589 0.134277 0.866219C0.134277 1.26661 0.466308 1.6084 0.856933 1.6084H4.15772L5.72022 12.331C5.9253 13.7177 6.65772 14.5869 8.07373 14.5869ZM6.27686 11.1103H19.4898C20.9155 11.1103 21.648 10.2314 21.8531 8.83494L22.6343 3.66895C22.6538 3.542 22.6734 3.38575 22.6734 3.29786C22.6734 2.82911 22.3218 2.50684 21.7847 2.50684H5.42725L5.43701 3.98145H21.0132L20.3198 8.65918C20.2417 9.26464 19.9195 9.64554 19.3433 9.64554H6.25733L6.27686 11.1103ZM8.84522 19.333C9.72412 19.333 10.4273 18.6396 10.4273 17.7509C10.4273 16.872 9.72412 16.1689 8.84522 16.1689C7.95655 16.1689 7.25342 16.872 7.25342 17.7509C7.25342 18.6396 7.95655 19.333 8.84522 19.333ZM17.9761 19.333C18.8648 19.333 19.5679 18.6396 19.5679 17.7509C19.5679 16.872 18.8648 16.1689 17.9761 16.1689C17.0972 16.1689 16.3843 16.872 16.3843 17.7509C16.3843 18.6396 17.0972 19.333 17.9761 19.333Z" fill="black" fill-opacity="0.85"/>
</svg>
