<svg width="25" height="18" viewBox="0 0 25 18" fill="none" xmlns="http://www.w3.org/2000/svg">
<g clip-path="url(#clip0_2456_1564)">
<path d="M0.794434 13.3916C0.794434 13.8408 0.970215 14.124 1.36084 14.3096C2.44482 14.8467 3.05029 15.4619 3.72412 16.79C3.9292 17.1514 4.23193 17.3369 4.63232 17.3369H21.1069C21.4975 17.3369 21.8003 17.1514 22.0053 16.79C22.6792 15.4619 23.2846 14.8467 24.3784 14.3096C24.769 14.124 24.9448 13.8408 24.9448 13.3916V4.3877C24.9448 3.92871 24.769 3.64551 24.3784 3.46973C23.2846 2.93262 22.6792 2.30762 22.0053 0.989258C21.8003 0.618164 21.4975 0.432617 21.1069 0.432617H4.63232C4.23193 0.432617 3.9292 0.618164 3.72412 0.989258C3.05029 2.30762 2.44482 2.93262 1.36084 3.46973C0.970215 3.64551 0.794434 3.92871 0.794434 4.3877V13.3916ZM2.3667 13.167V4.61231C3.54834 4.12403 4.31005 3.33301 4.92529 2.00489H20.8139C21.4194 3.33301 22.1909 4.12403 23.3725 4.61231V13.167C22.1909 13.6553 21.4194 14.4463 20.8139 15.7646H4.92529C4.31005 14.4463 3.54834 13.6553 2.3667 13.167ZM5.05224 13.206C5.05224 13.7236 5.40381 14.0654 5.91162 14.0654H19.8178C20.3354 14.0654 20.6772 13.7236 20.6772 13.206V4.57324C20.6772 4.06543 20.3354 3.71387 19.8178 3.71387H5.91162C5.40381 3.71387 5.05224 4.06543 5.05224 4.57324V13.206ZM6.23388 12.6689V11.0088H7.52295V12.8838H6.45849C6.31201 12.8838 6.23388 12.8154 6.23388 12.6689ZM6.23388 9.82715V7.96192H7.52295V9.82715H6.23388ZM6.23388 6.78028V5.11035C6.23388 4.97364 6.31201 4.89551 6.45849 4.89551H7.52295V6.78028H6.23388ZM18.2163 6.78028V4.89551H19.2807C19.4272 4.89551 19.4956 4.97364 19.4956 5.11035V6.78028H18.2163ZM18.2163 9.82715V7.96192H19.4956V9.82715H18.2163ZM18.2163 12.8838V11.0088H19.4956V12.6689C19.4956 12.8154 19.4272 12.8838 19.2807 12.8838H18.2163ZM8.70459 12.8838V4.89551H17.0346V12.8838H8.70459Z" fill="black" fill-opacity="0.85"/>
</g>
<defs>
<clipPath id="clip0_2456_1564">
<rect width="24.1504" height="16.9238" fill="white" transform="translate(0.794434 0.432617)"/>
</clipPath>
</defs>
</svg>
