<svg width="22" height="21" viewBox="0 0 22 21" fill="none" xmlns="http://www.w3.org/2000/svg">
<path d="M4.18697 20.6846C4.58737 20.9971 5.09518 20.8897 5.70065 20.4502L10.8667 16.6514L16.0425 20.4502C16.6479 20.8897 17.146 20.9971 17.5561 20.6846C17.9565 20.3818 18.0444 19.8838 17.8003 19.1709L15.7593 13.0967L20.9741 9.34667C21.5796 8.917 21.8237 8.46778 21.6675 7.9795C21.5112 7.51075 21.0522 7.27637 20.3003 7.28614L13.9038 7.3252L11.9604 1.22168C11.7261 0.499023 11.3745 0.137695 10.8667 0.137695C10.3686 0.137695 10.017 0.499023 9.78268 1.22168L7.83932 7.3252L1.44283 7.28614C0.69088 7.27637 0.231896 7.51075 0.0756458 7.9795C-0.09037 8.46778 0.163536 8.917 0.769005 9.34667L5.98385 13.0967L3.94283 19.1709C3.69869 19.8838 3.78658 20.3818 4.18697 20.6846ZM5.59322 18.751C5.57369 18.7315 5.58346 18.7217 5.59322 18.6631L7.53658 13.0772C7.6733 12.6963 7.59518 12.3936 7.25338 12.1592L2.3901 8.79981C2.34127 8.77051 2.33151 8.75097 2.34127 8.72167C2.35104 8.69238 2.37057 8.69239 2.42916 8.69239L8.33737 8.79981C8.73776 8.80958 8.99166 8.64355 9.11862 8.24317L10.8179 2.58887C10.8276 2.53028 10.8472 2.51075 10.8667 2.51075C10.896 2.51075 10.9155 2.53028 10.9253 2.58887L12.6245 8.24317C12.7514 8.64355 13.0054 8.80958 13.4057 8.79981L19.3139 8.69239C19.3725 8.69239 19.3921 8.69238 19.4018 8.72167C19.4116 8.75097 19.3921 8.77051 19.353 8.79981L14.4897 12.1592C14.1479 12.3936 14.0698 12.6963 14.2065 13.0772L16.1499 18.6631C16.1597 18.7217 16.1694 18.7315 16.1499 18.751C16.1304 18.7803 16.1011 18.7607 16.062 18.7315L11.3647 15.1475C11.0522 14.9033 10.6909 14.9033 10.3784 15.1475L5.68112 18.7315C5.64205 18.7607 5.61276 18.7803 5.59322 18.751Z" fill="black" fill-opacity="0.85"/>
</svg>
