<?xml version="1.0" encoding="UTF-8"?>
<!--Generator: Apple Native CoreSVG 232.5-->
<!DOCTYPE svg
PUBLIC "-//W3C//DTD SVG 1.1//EN"
       "http://www.w3.org/Graphics/SVG/1.1/DTD/svg11.dtd">
<svg version="1.1" xmlns="http://www.w3.org/2000/svg" xmlns:xlink="http://www.w3.org/1999/xlink" width="15.9375" height="15.9453">
 <g>
  <rect height="15.9453" opacity="0" width="15.9375" x="0" y="0"/>
  <path d="M7.96875 15.9375C12.3281 15.9375 15.9375 12.3203 15.9375 7.96875C15.9375 3.60938 12.3203 0 7.96094 0C3.60938 0 0 3.60938 0 7.96875C0 12.3203 3.61719 15.9375 7.96875 15.9375ZM7.96875 14.6094C4.28125 14.6094 1.33594 11.6562 1.33594 7.96875C1.33594 4.28125 4.27344 1.32812 7.96094 1.32812C11.6484 1.32812 14.6094 4.28125 14.6094 7.96875C14.6094 11.6562 11.6562 14.6094 7.96875 14.6094Z" fill="#ffffff" fill-opacity="0.85"/>
  <path d="M3.71875 6.42969L12.2344 6.42969C12.5781 6.42969 12.8281 6.21094 12.8281 5.875C12.8281 5.54688 12.5781 5.32812 12.2344 5.32812L3.71875 5.32812C3.36719 5.32812 3.125 5.54688 3.125 5.875C3.125 6.21094 3.36719 6.42969 3.71875 6.42969ZM4.875 9.01562L11.0781 9.01562C11.4219 9.01562 11.6641 8.79688 11.6641 8.46094C11.6641 8.13281 11.4219 7.91406 11.0781 7.91406L4.875 7.91406C4.52344 7.91406 4.28125 8.13281 4.28125 8.46094C4.28125 8.79688 4.52344 9.01562 4.875 9.01562ZM6.07812 11.6094L9.86719 11.6094C10.2109 11.6094 10.4609 11.3828 10.4609 11.0547C10.4609 10.7266 10.2109 10.5078 9.86719 10.5078L6.07812 10.5078C5.73438 10.5078 5.49219 10.7266 5.49219 11.0547C5.49219 11.3828 5.73438 11.6094 6.07812 11.6094Z" fill="#ffffff" fill-opacity="0.85"/>
 </g>
</svg>
