<svg width="24" height="19" viewBox="0 0 24 19" fill="none" xmlns="http://www.w3.org/2000/svg">
<path d="M4.02491 18.2207H20.9194C22.9702 18.2207 23.9858 17.2149 23.9858 15.2031V3.26953C23.9858 1.25781 22.9702 0.242188 20.9194 0.242188H4.02491C1.98389 0.242188 0.958496 1.25781 0.958496 3.26953V15.2031C0.958496 17.2149 1.98389 18.2207 4.02491 18.2207ZM4.04444 16.6484C3.06788 16.6484 2.53077 16.1309 2.53077 15.1152V3.35742C2.53077 2.3418 3.06788 1.81446 4.04444 1.81446H20.8999C21.8667 1.81446 22.4136 2.3418 22.4136 3.35742V15.1152C22.4136 16.1309 21.8667 16.6484 20.8999 16.6484H4.04444Z" fill="black" fill-opacity="0.85"/>
<path d="M14.7769 6.01367H20.1089C20.4507 6.01367 20.7144 5.75 20.7144 5.40821C20.7144 5.07617 20.4507 4.8125 20.1089 4.8125H14.7769C14.4253 4.8125 14.1616 5.07617 14.1616 5.40821C14.1616 5.75 14.4253 6.01367 14.7769 6.01367ZM14.7769 9.8418H20.1089C20.4507 9.8418 20.7144 9.56836 20.7144 9.22657C20.7144 8.89453 20.4507 8.64063 20.1089 8.64063H14.7769C14.4253 8.64063 14.1616 8.89453 14.1616 9.22657C14.1616 9.56836 14.4253 9.8418 14.7769 9.8418ZM14.7769 13.6602H20.1089C20.4507 13.6602 20.7144 13.4063 20.7144 13.0742C20.7144 12.7324 20.4507 12.459 20.1089 12.459H14.7769C14.4253 12.459 14.1616 12.7324 14.1616 13.0742C14.1616 13.4063 14.4253 13.6602 14.7769 13.6602ZM4.60108 13.6602H12.228C12.5503 13.6602 12.7065 13.4453 12.7065 13.1524C12.7065 12.2344 11.3296 9.8711 8.40967 9.8711C5.48975 9.8711 4.12256 12.2344 4.12256 13.1524C4.12256 13.4453 4.27881 13.6602 4.60108 13.6602ZM8.40967 9.1875C9.60108 9.19727 10.5483 8.19141 10.5483 6.85352C10.5483 5.60352 9.60108 4.56836 8.40967 4.56836C7.22803 4.56836 6.271 5.60352 6.271 6.85352C6.271 8.19141 7.22803 9.1875 8.40967 9.1875Z" fill="black" fill-opacity="0.85"/>
</svg>
