<svg width="23" height="24" viewBox="0 0 23 24" fill="none" xmlns="http://www.w3.org/2000/svg">
<path d="M6.81517 8.4386H16.1557C16.1557 8.4386 16.8028 10.5856 18.943 10.3093L20.9944 18.3483H2.00195L4.04336 10.3531C6.14289 10.6297 6.81517 8.4386 6.81517 8.4386Z" fill="#FF4A4A"/>
<path d="M20.9968 18.347V20.2725C20.9968 20.6835 20.8404 21.0777 20.5619 21.3683C20.2834 21.6589 19.9056 21.8222 19.5118 21.8222H3.48823C3.09437 21.8222 2.71664 21.6589 2.43814 21.3683C2.15963 21.0777 2.00317 20.6835 2.00317 20.2725V18.347H20.9968Z" fill="#E1E6E9"/>
<path d="M19.5118 21.9843H3.48824C3.05328 21.9837 2.63631 21.8031 2.32878 21.4822C2.02125 21.1612 1.84827 20.7261 1.84778 20.2722V18.347C1.84778 18.304 1.86415 18.2628 1.8933 18.2324C1.92244 18.202 1.96197 18.1849 2.00318 18.1849H20.9968C21.038 18.1849 21.0776 18.202 21.1067 18.2324C21.1359 18.2628 21.1522 18.304 21.1522 18.347V20.2722C21.1518 20.7261 20.9789 21.1613 20.6713 21.4823C20.3638 21.8033 19.9468 21.9838 19.5118 21.9843ZM2.15859 18.5092V20.2722C2.159 20.6401 2.29921 20.9928 2.54847 21.2529C2.79773 21.5131 3.13569 21.6595 3.48824 21.66H19.5118C19.8643 21.6595 20.2023 21.5131 20.4515 21.2529C20.7008 20.9928 20.841 20.6401 20.8414 20.2722V18.5092H2.15859Z" fill="#323C6B"/>
<path d="M20.9984 18.347V20.2735C20.9983 20.4769 20.9598 20.6783 20.8851 20.8662C20.8104 21.0541 20.7009 21.2248 20.5629 21.3685C20.4249 21.5122 20.2612 21.626 20.0809 21.7036C19.9007 21.7812 19.7076 21.8209 19.5127 21.8205H18.4559C18.6509 21.8209 18.844 21.7812 19.0242 21.7036C19.2044 21.626 19.3682 21.5122 19.5062 21.3685C19.6442 21.2248 19.7537 21.0541 19.8284 20.8662C19.9031 20.6783 19.9416 20.4769 19.9416 20.2735V18.347H20.9984Z" fill="#D5D6DB"/>
<path d="M9.10245 7.75751V8.43859H7.74731V7.75751C7.74731 7.65085 7.78792 7.54856 7.8602 7.47314C7.93248 7.39772 8.0305 7.35535 8.13272 7.35535H8.71705C8.81926 7.35535 8.91729 7.39772 8.98957 7.47314C9.06185 7.54856 9.10245 7.65085 9.10245 7.75751Z" fill="#E1E6E9"/>
<path d="M9.10277 8.60108H7.74732C7.70611 8.60108 7.66658 8.58399 7.63744 8.55358C7.60829 8.52317 7.59192 8.48193 7.59192 8.43892V7.75784C7.59217 7.60819 7.64927 7.46475 7.7507 7.35897C7.85214 7.25318 7.98963 7.19368 8.13304 7.19351H8.71705C8.86046 7.19368 8.99796 7.25318 9.09939 7.35897C9.20083 7.46475 9.25793 7.60819 9.25817 7.75784V8.43892C9.25817 8.48193 9.2418 8.52317 9.21266 8.55358C9.18351 8.58399 9.14398 8.60108 9.10277 8.60108ZM7.90273 8.27675H8.94736V7.75784C8.94728 7.69415 8.92298 7.63311 8.8798 7.58811C8.83661 7.54311 8.77808 7.51784 8.71705 7.51784H8.13304C8.07201 7.51784 8.01348 7.54311 7.9703 7.58811C7.92711 7.63311 7.90281 7.69415 7.90273 7.75784V8.27675Z" fill="#323C6B"/>
<path d="M15.2503 7.75751V8.43859H13.8933V7.75751C13.8938 7.65101 13.9346 7.54901 14.0067 7.4737C14.0789 7.39839 14.1767 7.35586 14.2787 7.35535H14.8661C14.968 7.3562 15.0654 7.39888 15.1373 7.47416C15.2092 7.54943 15.2498 7.65123 15.2503 7.75751Z" fill="#E1E6E9"/>
<path d="M15.2503 8.60108H13.8933C13.8521 8.60108 13.8126 8.58399 13.7834 8.55358C13.7543 8.52317 13.7379 8.48193 13.7379 8.43892V7.75784C13.7382 7.60819 13.7953 7.46475 13.8967 7.35897C13.9981 7.25318 14.1356 7.19368 14.279 7.19351H14.8665C15.0098 7.19377 15.1472 7.25332 15.2485 7.3591C15.3498 7.46489 15.4068 7.60828 15.407 7.75784V8.43892C15.407 8.46032 15.4029 8.48152 15.395 8.50128C15.3871 8.52103 15.3756 8.53897 15.361 8.55404C15.3464 8.56912 15.3292 8.58104 15.3102 8.58911C15.2912 8.59718 15.2708 8.60125 15.2503 8.60108ZM14.0475 8.27676H15.0949V7.75784C15.0942 7.69447 15.0698 7.63392 15.0269 7.58908C14.9839 7.54424 14.9259 7.51868 14.8652 7.51784H14.2778C14.217 7.51859 14.1589 7.54411 14.1158 7.58895C14.0728 7.63378 14.0483 7.69439 14.0475 7.75784V8.27676Z" fill="#323C6B"/>
<path d="M5.89392 7.3563C5.90014 6.90711 5.98561 6.10765 6.2268 5.9189C7.83245 4.66247 15.1657 4.66247 16.7782 5.9189C17.0197 6.10765 17.1052 6.90711 17.1114 7.3563H22.0558C22.1082 6.69059 22.0041 6.02157 21.7523 5.40745C21.5005 4.79332 21.1088 4.25267 20.6111 3.83252C17.3858 1.30831 5.61233 1.30831 2.39388 3.83252C1.65633 4.4069 0.812168 5.35133 0.946749 7.3563H5.89392Z" fill="#FF4A4A"/>
<path d="M20.994 18.3467H20.0616L17.9978 10.2678C18.3081 10.3387 18.6277 10.353 18.9427 10.31L20.994 18.3467Z" fill="#E7343F"/>
<path d="M20.6112 3.83222C17.3859 1.30833 5.61239 1.30833 2.39394 3.83222C2.22726 3.96113 2.0694 4.10201 1.92151 4.25384C5.6702 2.0426 16.5896 2.14379 19.6778 4.56033C20.084 4.90226 20.4203 5.32576 20.6667 5.80575C20.9132 6.28573 21.0649 6.81245 21.1128 7.35471H22.0558C22.108 6.68921 22.0037 6.02049 21.7519 5.40663C21.5001 4.79277 21.1086 4.25232 20.6112 3.83222Z" fill="#E7343F"/>
<path d="M4.73388 9.32919H2.1066C1.82002 9.34913 1.53747 9.25031 1.32029 9.05417C1.10312 8.85804 0.968855 8.58043 0.946655 8.28162V7.35632H5.89383V8.28162C5.87163 8.58043 5.73737 8.85804 5.52019 9.05417C5.30302 9.25031 5.02047 9.34913 4.73388 9.32919Z" fill="#E1E6E9"/>
<path d="M4.73389 9.49135H2.10661C1.77887 9.51111 1.45689 9.39515 1.21061 9.16864C0.96433 8.94214 0.813636 8.62339 0.79126 8.28162V7.35665C0.79126 7.31364 0.807633 7.2724 0.836777 7.24198C0.865921 7.21157 0.905449 7.19449 0.946665 7.19449H5.89384C5.93505 7.19449 5.97458 7.21157 6.00372 7.24198C6.03287 7.2724 6.04924 7.31364 6.04924 7.35665V8.28162C6.02687 8.62339 5.87617 8.94214 5.62989 9.16864C5.38361 9.39515 5.06163 9.51111 4.73389 9.49135ZM1.10207 7.51881V8.28162C1.12477 8.53719 1.24279 8.77322 1.43069 8.93884C1.6186 9.10447 1.86134 9.18641 2.10661 9.16703H4.73389C4.97916 9.18641 5.2219 9.10447 5.40981 8.93884C5.59772 8.77322 5.71573 8.53719 5.73843 8.28162V7.51881H1.10207Z" fill="#323C6B"/>
<path d="M20.8958 9.32919H18.2713C17.9847 9.34913 17.7021 9.25031 17.485 9.05417C17.2678 8.85804 17.1335 8.58043 17.1113 8.28162V7.35632H22.0557V8.28162C22.0335 8.58043 21.8992 8.85804 21.6821 9.05417C21.4649 9.25031 21.1823 9.34913 20.8958 9.32919Z" fill="#E1E6E9"/>
<path d="M22.0552 7.35568V8.28001C22.0337 8.57899 21.8997 8.85695 21.6825 9.05322C21.4653 9.24949 21.1825 9.34812 20.8959 9.32757H19.9541C20.2408 9.34812 20.5236 9.24949 20.7408 9.05322C20.958 8.85695 21.0919 8.57899 21.1134 8.28001V7.35568H22.0552Z" fill="#D5D6DB"/>
<path d="M22.0558 7.51883H17.1114C17.0705 7.51883 17.0313 7.50201 17.0022 7.47202C16.9731 7.44203 16.9565 7.40128 16.956 7.35861C16.9476 6.74694 16.8261 6.15861 16.685 6.04867C15.1309 4.83861 7.86665 4.83829 6.32006 6.04867C6.17926 6.15894 6.05773 6.74694 6.04934 7.35861C6.04885 7.40128 6.03226 7.44203 6.00317 7.47202C5.97408 7.50201 5.93483 7.51883 5.89393 7.51883H0.946758C0.907359 7.51893 0.869395 7.50341 0.840544 7.47541C0.811693 7.44741 0.794111 7.40903 0.791353 7.36802C0.649001 5.24694 1.58454 4.26034 2.30096 3.70315C5.56447 1.14326 17.4325 1.14294 20.7041 3.70315C21.224 4.13822 21.6334 4.70008 21.8961 5.3392C22.1588 5.97832 22.2668 6.67507 22.2106 7.36802C22.2078 7.40892 22.1903 7.44721 22.1616 7.47519C22.1329 7.50317 22.0951 7.51876 22.0558 7.51883ZM17.2615 7.1945H21.9091C21.9338 6.57998 21.821 5.9679 21.5796 5.4068C21.3381 4.84569 20.9747 4.35101 20.5182 3.96196C17.3122 1.45364 5.68569 1.45364 2.48652 3.96196C1.79154 4.50326 1.01265 5.35818 1.09253 7.1945H5.74381C5.76122 6.83775 5.83302 6.02467 6.13388 5.78921C7.78615 4.49612 15.212 4.49612 16.8715 5.78921C17.1723 6.02467 17.2441 6.83645 17.2615 7.1945Z" fill="#323C6B"/>
<path d="M20.9956 18.5105H2.00194C1.97812 18.5105 1.95461 18.5048 1.93324 18.4938C1.91187 18.4828 1.89321 18.4668 1.8787 18.4471C1.86419 18.4274 1.85422 18.4044 1.84956 18.3801C1.8449 18.3557 1.84567 18.3305 1.85182 18.3065L3.89322 10.3112C3.90322 10.2735 3.92582 10.2408 3.95695 10.2189C3.98808 10.1971 4.02568 10.1876 4.06293 10.1922C6.00643 10.4468 6.64266 8.47329 6.66721 8.38897C6.67728 8.35628 6.69703 8.32778 6.72362 8.30755C6.7502 8.28733 6.78225 8.27643 6.81516 8.27643H16.1556C16.1886 8.27647 16.2207 8.28747 16.2473 8.30781C16.2739 8.32816 16.2936 8.35681 16.3036 8.38962C16.3288 8.472 16.9404 10.403 18.924 10.1484C18.9612 10.1437 18.9988 10.1531 19.0299 10.1749C19.061 10.1968 19.0834 10.2297 19.0931 10.2675L21.1445 18.3065C21.1506 18.3305 21.1514 18.3557 21.1467 18.3801C21.1421 18.4044 21.1321 18.4274 21.1176 18.4471C21.1031 18.4668 21.0844 18.4828 21.063 18.4938C21.0417 18.5048 21.0182 18.5105 20.9943 18.5105H20.9956ZM2.20428 18.1862H20.7933L18.8271 10.4848C16.9721 10.6443 16.2218 9.0467 16.0481 8.60075H6.92208C6.74647 9.05091 5.98125 10.6845 4.15928 10.5285L2.20428 18.1862Z" fill="#323C6B"/>
<path d="M19.5118 21.9843H3.48824C3.05328 21.9837 2.63631 21.8031 2.32878 21.4822C2.02125 21.1612 1.84827 20.7261 1.84778 20.2722V18.347C1.84778 18.304 1.86415 18.2628 1.8933 18.2324C1.92244 18.202 1.96197 18.1849 2.00318 18.1849H20.9968C21.038 18.1849 21.0776 18.202 21.1067 18.2324C21.1359 18.2628 21.1522 18.304 21.1522 18.347V20.2722C21.1518 20.7261 20.9789 21.1613 20.6713 21.4823C20.3638 21.8033 19.9468 21.9838 19.5118 21.9843ZM2.15859 18.5092V20.2722C2.159 20.6401 2.29921 20.9928 2.54847 21.2529C2.79773 21.5131 3.13569 21.6595 3.48824 21.66H19.5118C19.8643 21.6595 20.2023 21.5131 20.4515 21.2529C20.7008 20.9928 20.841 20.6401 20.8414 20.2722V18.5092H2.15859Z" fill="#323C6B"/>
<path d="M11.5 16.8448C13.2231 16.8448 14.62 15.3872 14.62 13.5892C14.62 11.7912 13.2231 10.3336 11.5 10.3336C9.77696 10.3336 8.38013 11.7912 8.38013 13.5892C8.38013 15.3872 9.77696 16.8448 11.5 16.8448Z" fill="#D5D6DB"/>
<path d="M11.4999 11.494C11.459 11.4931 11.42 11.4757 11.3911 11.4454C11.3762 11.4309 11.3643 11.4133 11.3563 11.3938C11.3482 11.3742 11.3442 11.3531 11.3445 11.3319C11.3442 11.3101 11.3482 11.2885 11.3562 11.2684C11.3642 11.2484 11.3761 11.2302 11.3911 11.2151C11.4209 11.1869 11.4597 11.1713 11.4999 11.1713C11.5401 11.1713 11.5789 11.1869 11.6087 11.2151C11.6237 11.2302 11.6356 11.2484 11.6436 11.2684C11.6516 11.2885 11.6556 11.3101 11.6553 11.3319C11.6556 11.3531 11.6516 11.3742 11.6435 11.3938C11.6355 11.4133 11.6236 11.4309 11.6087 11.4454C11.5798 11.4757 11.5408 11.4931 11.4999 11.494Z" fill="#323C6B"/>
<path d="M10.2286 11.9254C10.1869 11.9239 10.1472 11.9066 10.1168 11.8767C10.0886 11.8463 10.073 11.8055 10.0732 11.7632C10.0735 11.7201 10.089 11.6785 10.1168 11.6465C10.1388 11.6237 10.1668 11.6083 10.1972 11.6022C10.2276 11.596 10.2591 11.5994 10.2877 11.6119C10.3163 11.6244 10.3407 11.6454 10.3578 11.6723C10.375 11.6993 10.3841 11.7309 10.3841 11.7632C10.383 11.8059 10.3663 11.8465 10.3374 11.8767C10.3085 11.9069 10.2695 11.9243 10.2286 11.9254Z" fill="#323C6B"/>
<path d="M9.44235 13.0541C9.42154 13.054 9.40095 13.0497 9.38175 13.0414C9.36254 13.033 9.34511 13.0208 9.33045 13.0054C9.30354 12.9741 9.28812 12.9339 9.28694 12.8919C9.28624 12.8706 9.29051 12.8495 9.29937 12.8303C9.30595 12.8098 9.31653 12.7911 9.33045 12.7751C9.36084 12.7469 9.40011 12.7313 9.44079 12.7313C9.48147 12.7313 9.52074 12.7469 9.55113 12.7751C9.56601 12.7909 9.57765 12.8097 9.58532 12.8303C9.59273 12.8499 9.59693 12.8708 9.59775 12.8919C9.59661 12.913 9.59242 12.9337 9.58532 12.9535C9.57762 12.9732 9.56596 12.9909 9.55113 13.0054C9.53727 13.021 9.52042 13.0334 9.50168 13.0418C9.48294 13.0501 9.46273 13.0543 9.44235 13.0541Z" fill="#323C6B"/>
<path d="M9.44235 14.4486C9.40098 14.4483 9.36116 14.4322 9.33045 14.4032C9.31718 14.3868 9.30667 14.3682 9.29937 14.3481C9.29051 14.3289 9.28624 14.3078 9.28694 14.2865C9.28812 14.2444 9.30354 14.2042 9.33045 14.1729C9.36014 14.1433 9.39967 14.1267 9.44079 14.1267C9.48191 14.1267 9.52145 14.1433 9.55113 14.1729C9.56596 14.1875 9.57762 14.2052 9.58532 14.2248C9.59242 14.2446 9.59661 14.2654 9.59775 14.2865C9.59693 14.3076 9.59273 14.3284 9.58532 14.3481C9.5769 14.3683 9.56535 14.3869 9.55113 14.4032C9.52194 14.4326 9.4829 14.4489 9.44235 14.4486Z" fill="#323C6B"/>
<path d="M10.2288 15.5773C10.2081 15.5782 10.1875 15.5746 10.1683 15.5668C10.149 15.559 10.1315 15.5471 10.1169 15.5318C10.1023 15.5166 10.0909 15.4983 10.0834 15.4782C10.0759 15.4581 10.0725 15.4366 10.0734 15.4151C10.0731 15.3728 10.0887 15.3321 10.1169 15.3016C10.147 15.2727 10.1863 15.2567 10.2272 15.2567C10.2681 15.2567 10.3075 15.2727 10.3376 15.3016C10.3666 15.3317 10.3833 15.3724 10.3842 15.4151C10.3827 15.4586 10.3662 15.5001 10.3376 15.5319C10.3084 15.5612 10.2693 15.5775 10.2288 15.5773Z" fill="#323C6B"/>
<path d="M11.4999 16.0086C11.4593 16.0089 11.4203 15.9926 11.3911 15.9632C11.3761 15.9481 11.3642 15.9299 11.3562 15.9099C11.3482 15.8898 11.3442 15.8682 11.3445 15.8465C11.3442 15.8252 11.3482 15.8041 11.3563 15.7845C11.3643 15.765 11.3762 15.7474 11.3911 15.7329C11.4202 15.7032 11.4592 15.6866 11.4999 15.6866C11.5406 15.6866 11.5796 15.7032 11.6087 15.7329C11.6236 15.7474 11.6355 15.765 11.6435 15.7845C11.6516 15.8041 11.6556 15.8252 11.6553 15.8465C11.6553 15.8682 11.6512 15.8896 11.6432 15.9097C11.6352 15.9297 11.6234 15.9479 11.6087 15.9632C11.5795 15.9926 11.5404 16.0089 11.4999 16.0086Z" fill="#323C6B"/>
<path d="M12.7711 15.5773C12.7306 15.5775 12.6915 15.5612 12.6623 15.5319C12.6338 15.5001 12.6172 15.4586 12.6157 15.4151C12.6163 15.3831 12.6258 15.3519 12.6432 15.3254C12.6606 15.299 12.685 15.2784 12.7135 15.2664C12.742 15.2543 12.7732 15.2512 12.8033 15.2574C12.8335 15.2637 12.8612 15.2791 12.883 15.3016C12.9112 15.3321 12.9268 15.3728 12.9265 15.4151C12.9274 15.4366 12.924 15.4581 12.9165 15.4782C12.909 15.4983 12.8976 15.5166 12.883 15.5318C12.8684 15.5471 12.8509 15.559 12.8316 15.5668C12.8124 15.5746 12.7918 15.5782 12.7711 15.5773Z" fill="#323C6B"/>
<path d="M13.5575 14.4486C13.5371 14.4489 13.5169 14.4447 13.4982 14.4364C13.4794 14.428 13.4626 14.4156 13.4487 14.4C13.4326 14.3853 13.4195 14.3673 13.4103 14.3472C13.4011 14.327 13.396 14.305 13.3953 14.2827C13.3947 14.2604 13.3984 14.2381 13.4064 14.2174C13.4143 14.1966 13.4263 14.1778 13.4416 14.1621C13.4568 14.1464 13.475 14.1342 13.495 14.1262C13.515 14.1182 13.5363 14.1146 13.5577 14.1156C13.5791 14.1166 13.6001 14.1223 13.6193 14.1321C13.6385 14.142 13.6556 14.1559 13.6694 14.173C13.6974 14.2036 13.713 14.2442 13.713 14.2865C13.713 14.3288 13.6974 14.3694 13.6694 14.4C13.6549 14.4156 13.6375 14.428 13.6183 14.4364C13.599 14.4448 13.5783 14.4489 13.5575 14.4486Z" fill="#323C6B"/>
<path d="M13.5575 13.0541C13.5371 13.0543 13.5169 13.0501 13.4982 13.0418C13.4794 13.0334 13.4626 13.021 13.4487 13.0054C13.4339 12.9909 13.4222 12.9732 13.4145 12.9535C13.4074 12.9337 13.4032 12.913 13.4021 12.8919C13.4036 12.8484 13.4201 12.8069 13.4487 12.7751C13.4791 12.7469 13.5184 12.7313 13.5591 12.7313C13.5997 12.7313 13.639 12.7469 13.6694 12.7751C13.6971 12.8072 13.7126 12.8487 13.7129 12.8919C13.7132 12.9342 13.6975 12.9749 13.6694 13.0054C13.6547 13.0208 13.6373 13.033 13.6181 13.0414C13.5989 13.0497 13.5783 13.054 13.5575 13.0541Z" fill="#323C6B"/>
<path d="M12.7711 11.9254C12.7302 11.9243 12.6913 11.9069 12.6624 11.8767C12.6334 11.8465 12.6167 11.8059 12.6157 11.7632C12.6172 11.7197 12.6338 11.6782 12.6623 11.6465C12.6927 11.6183 12.732 11.6027 12.7727 11.6027C12.8134 11.6027 12.8526 11.6183 12.883 11.6465C12.9108 11.6785 12.9262 11.7201 12.9265 11.7632C12.9268 11.8055 12.9112 11.8463 12.883 11.8767C12.8526 11.9066 12.8128 11.9239 12.7711 11.9254Z" fill="#323C6B"/>
<path d="M3.54721 2.28907C3.51077 2.28897 3.47553 2.27552 3.44764 2.25106C3.41974 2.2266 3.40097 2.19269 3.3946 2.15525C3.38824 2.11782 3.39468 2.07924 3.4128 2.04626C3.43092 2.01327 3.45957 1.98798 3.49375 1.9748C3.63154 1.92183 3.77182 1.87124 3.91459 1.82302C3.95378 1.80969 3.99645 1.81315 4.0332 1.83264C4.06995 1.85214 4.09778 1.88607 4.11055 1.92697C4.12333 1.96787 4.12001 2.01239 4.10133 2.05074C4.08265 2.08909 4.05013 2.11812 4.01094 2.13145C3.87201 2.17848 3.73494 2.22875 3.60067 2.27902C3.58357 2.28567 3.56546 2.28908 3.54721 2.28907Z" fill="#323C6B"/>
<path d="M4.92104 1.85609C4.88316 1.85597 4.84663 1.84141 4.81831 1.81516C4.78999 1.78891 4.77184 1.75277 4.76725 1.71354C4.76267 1.6743 4.77198 1.63467 4.79343 1.60209C4.81488 1.56952 4.847 1.54624 4.88374 1.53663C5.76881 1.31481 6.66618 1.15028 7.5707 1.04398C7.61127 1.03969 7.65184 1.0522 7.68365 1.07884C7.71545 1.10547 7.73595 1.14408 7.74072 1.18634C7.7455 1.2286 7.73416 1.27113 7.70915 1.30474C7.68415 1.33836 7.64748 1.36037 7.60707 1.36603C6.7155 1.4711 5.831 1.63357 4.95865 1.85252C4.94629 1.85528 4.93367 1.85648 4.92104 1.85609Z" fill="#323C6B"/>
<path d="M19.5117 22.9573H19.3873C19.3461 22.9573 19.3066 22.9402 19.2775 22.9098C19.2483 22.8794 19.2319 22.8381 19.2319 22.7951C19.2319 22.7521 19.2483 22.7109 19.2775 22.6804C19.3066 22.65 19.3461 22.633 19.3873 22.633H19.5117C19.9464 22.6318 20.3716 22.5001 20.7366 22.2537C21.1016 22.0073 21.391 21.6565 21.5702 21.2432C21.5876 21.2048 21.6188 21.1751 21.6571 21.1605C21.6953 21.1459 21.7375 21.1475 21.7746 21.165C21.8117 21.1825 21.8407 21.2145 21.8555 21.2541C21.8702 21.2937 21.8694 21.3378 21.8533 21.3768C21.6495 21.8469 21.3203 22.2459 20.9051 22.5262C20.4899 22.8064 20.0062 22.9561 19.5117 22.9573Z" fill="#323C6B"/>
<path d="M18.6032 22.9573H18.3766C18.3354 22.9573 18.2959 22.9402 18.2667 22.9098C18.2376 22.8794 18.2212 22.8381 18.2212 22.7951C18.2212 22.7521 18.2376 22.7109 18.2667 22.6805C18.2959 22.65 18.3354 22.633 18.3766 22.633H18.6032C18.6444 22.633 18.6839 22.65 18.7131 22.6805C18.7422 22.7109 18.7586 22.7521 18.7586 22.7951C18.7586 22.8381 18.7422 22.8794 18.7131 22.9098C18.6839 22.9402 18.6444 22.9573 18.6032 22.9573Z" fill="#323C6B"/>
<path d="M10.956 20.8751H7.64063C7.58704 20.8751 7.53566 20.8529 7.49777 20.8134C7.45988 20.7739 7.4386 20.7202 7.4386 20.6643C7.4386 20.6084 7.45988 20.5548 7.49777 20.5153C7.53566 20.4757 7.58704 20.4535 7.64063 20.4535H10.956C10.9826 20.4535 11.0089 20.459 11.0334 20.4696C11.0579 20.4802 11.0801 20.4957 11.0989 20.5153C11.1177 20.5348 11.1325 20.5581 11.1427 20.5837C11.1529 20.6092 11.1581 20.6366 11.1581 20.6643C11.1581 20.692 11.1529 20.7194 11.1427 20.745C11.1325 20.7706 11.1177 20.7938 11.0989 20.8134C11.0801 20.833 11.0579 20.8485 11.0334 20.8591C11.0089 20.8697 10.9826 20.8751 10.956 20.8751Z" fill="white"/>
<path d="M6.80057 20.8751H6.54944C6.52291 20.8751 6.49664 20.8697 6.47213 20.8591C6.44762 20.8485 6.42534 20.833 6.40658 20.8134C6.38782 20.7938 6.37294 20.7706 6.36279 20.745C6.35264 20.7194 6.34741 20.692 6.34741 20.6643C6.34741 20.6366 6.35264 20.6092 6.36279 20.5837C6.37294 20.5581 6.38782 20.5348 6.40658 20.5153C6.42534 20.4957 6.44762 20.4802 6.47213 20.4696C6.49664 20.459 6.52291 20.4535 6.54944 20.4535H6.80057C6.8271 20.4535 6.85337 20.459 6.87788 20.4696C6.9024 20.4802 6.92467 20.4957 6.94343 20.5153C6.96219 20.5348 6.97707 20.5581 6.98722 20.5837C6.99737 20.6092 7.0026 20.6366 7.0026 20.6643C7.0026 20.692 6.99737 20.7194 6.98722 20.745C6.97707 20.7706 6.96219 20.7938 6.94343 20.8134C6.92467 20.833 6.9024 20.8485 6.87788 20.8591C6.85337 20.8697 6.8271 20.8751 6.80057 20.8751Z" fill="white"/>
<path d="M11.5001 17.0069C10.8523 17.0069 10.219 16.8065 9.68038 16.4309C9.14176 16.0554 8.72195 15.5216 8.47405 14.8971C8.22615 14.2726 8.16129 13.5854 8.28767 12.9224C8.41405 12.2594 8.72599 11.6505 9.18405 11.1725C9.64211 10.6945 10.2257 10.369 10.8611 10.2371C11.4964 10.1052 12.155 10.1729 12.7535 10.4316C13.3519 10.6903 13.8635 11.1283 14.2234 11.6904C14.5833 12.2524 14.7754 12.9132 14.7754 13.5892C14.7744 14.4953 14.429 15.364 13.815 16.0047C13.2009 16.6455 12.3684 17.0059 11.5001 17.0069ZM11.5001 10.4958C10.9137 10.4958 10.3406 10.6772 9.85306 11.0171C9.36555 11.357 8.98558 11.8401 8.7612 12.4054C8.53683 12.9706 8.47812 13.5926 8.59251 14.1927C8.70689 14.7927 8.98923 15.3439 9.40383 15.7765C9.81842 16.2092 10.3466 16.5038 10.9217 16.6231C11.4968 16.7425 12.0928 16.6812 12.6345 16.4471C13.1762 16.213 13.6392 15.8165 13.965 15.3078C14.2907 14.7991 14.4646 14.201 14.4646 13.5892C14.4637 12.769 14.151 11.9828 13.5953 11.4029C13.0395 10.8229 12.286 10.4967 11.5001 10.4958Z" fill="#323C6B"/>
<path d="M20.8955 9.49135H18.2713C17.9435 9.51111 17.6216 9.39515 17.3753 9.16864C17.129 8.94214 16.9783 8.62339 16.9559 8.28162V7.35665C16.9559 7.31364 16.9723 7.2724 17.0014 7.24198C17.0306 7.21157 17.0701 7.19449 17.1113 7.19449H22.0557C22.0969 7.19449 22.1365 7.21157 22.1656 7.24198C22.1948 7.2724 22.2111 7.31364 22.2111 7.35665V8.28162C22.1887 8.62342 22.0379 8.94217 21.7916 9.16866C21.5453 9.39516 21.2232 9.51112 20.8955 9.49135ZM17.2667 7.51881V8.28162C17.2894 8.53719 17.4075 8.77322 17.5954 8.93884C17.7833 9.10447 18.026 9.18641 18.2713 9.16703H20.8955C21.1408 9.1865 21.3836 9.10459 21.5716 8.93896C21.7596 8.77333 21.8776 8.53725 21.9003 8.28162V7.51881H17.2667Z" fill="#323C6B"/>
</svg>
