<svg width="19" height="19" viewBox="0 0 19 19" fill="none" xmlns="http://www.w3.org/2000/svg">
<path d="M1.98779 8.27343H6.44092C7.68115 8.27343 8.30615 7.64843 8.30615 6.35937V1.99414C8.30615 0.705078 7.68115 0.0898438 6.44092 0.0898438H1.98779C0.747559 0.0898438 0.122559 0.705078 0.122559 1.99414V6.35937C0.122559 7.64843 0.747559 8.27343 1.98779 8.27343ZM2.00733 6.89648C1.66553 6.89648 1.49951 6.7207 1.49951 6.35937V1.99414C1.49951 1.64258 1.66553 1.46679 2.00733 1.46679H6.41162C6.75342 1.46679 6.9292 1.64258 6.9292 1.99414V6.35937C6.9292 6.7207 6.75342 6.89648 6.41162 6.89648H2.00733ZM3.37451 5.20703H5.04444C5.18115 5.20703 5.23975 5.14843 5.23975 4.98242V3.36133C5.23975 3.20508 5.18115 3.14648 5.04444 3.14648H3.37451C3.22803 3.14648 3.1792 3.20508 3.1792 3.36133V4.98242C3.1792 5.14843 3.22803 5.20703 3.37451 5.20703ZM11.7925 8.27343H16.2359C17.4761 8.27343 18.1011 7.64843 18.1011 6.35937V1.99414C18.1011 0.705078 17.4761 0.0898438 16.2359 0.0898438H11.7925C10.5425 0.0898438 9.91748 0.705078 9.91748 1.99414V6.35937C9.91748 7.64843 10.5425 8.27343 11.7925 8.27343ZM11.8121 6.89648C11.4605 6.89648 11.2945 6.7207 11.2945 6.35937V1.99414C11.2945 1.64258 11.4605 1.46679 11.8121 1.46679H16.2164C16.5581 1.46679 16.7242 1.64258 16.7242 1.99414V6.35937C16.7242 6.7207 16.5581 6.89648 16.2164 6.89648H11.8121ZM13.2281 5.20703H14.898C15.0445 5.20703 15.1031 5.14843 15.1031 4.98242V3.36133C15.1031 3.20508 15.0445 3.14648 14.898 3.14648H13.2281C13.0914 3.14648 13.0425 3.20508 13.0425 3.36133V4.98242C13.0425 5.14843 13.0914 5.20703 13.2281 5.20703ZM1.98779 18.0683H6.44092C7.68115 18.0683 8.30615 17.4531 8.30615 16.1641V11.7891C8.30615 10.5098 7.68115 9.88476 6.44092 9.88476H1.98779C0.747559 9.88476 0.122559 10.5098 0.122559 11.7891V16.1641C0.122559 17.4531 0.747559 18.0683 1.98779 18.0683ZM2.00733 16.6914C1.66553 16.6914 1.49951 16.5156 1.49951 16.1641V11.7988C1.49951 11.4375 1.66553 11.2617 2.00733 11.2617H6.41162C6.75342 11.2617 6.9292 11.4375 6.9292 11.7988V16.1641C6.9292 16.5156 6.75342 16.6914 6.41162 16.6914H2.00733ZM3.37451 15.0117H5.04444C5.18115 15.0117 5.23975 14.9531 5.23975 14.7773V13.166C5.23975 13.0098 5.18115 12.9512 5.04444 12.9512H3.37451C3.22803 12.9512 3.1792 13.0098 3.1792 13.166V14.7773C3.1792 14.9531 3.22803 15.0117 3.37451 15.0117ZM10.5816 12.4141H12.2515C12.3882 12.4141 12.4468 12.3555 12.4468 12.1894V10.5683C12.4468 10.4121 12.3882 10.3535 12.2515 10.3535H10.5816C10.4351 10.3535 10.3863 10.4121 10.3863 10.5683V12.1894C10.3863 12.3555 10.4351 12.4141 10.5816 12.4141ZM15.7671 12.4141H17.4371C17.5738 12.4141 17.6324 12.3555 17.6324 12.1894V10.5683C17.6324 10.4121 17.5738 10.3535 17.4371 10.3535H15.7671C15.6206 10.3535 15.5718 10.4121 15.5718 10.5683V12.1894C15.5718 12.3555 15.6206 12.4141 15.7671 12.4141ZM13.1988 15.0117H14.8687C15.0054 15.0117 15.064 14.9531 15.064 14.7773V13.166C15.064 13.0098 15.0054 12.9512 14.8687 12.9512H13.1988C13.0523 12.9512 13.0035 13.0098 13.0035 13.166V14.7773C13.0035 14.9531 13.0523 15.0117 13.1988 15.0117ZM10.5816 17.5996H12.2515C12.3882 17.5996 12.4468 17.541 12.4468 17.375V15.7539C12.4468 15.5976 12.3882 15.5391 12.2515 15.5391H10.5816C10.4351 15.5391 10.3863 15.5976 10.3863 15.7539V17.375C10.3863 17.541 10.4351 17.5996 10.5816 17.5996ZM15.7671 17.5996H17.4371C17.5738 17.5996 17.6324 17.541 17.6324 17.375V15.7539C17.6324 15.5976 17.5738 15.5391 17.4371 15.5391H15.7671C15.6206 15.5391 15.5718 15.5976 15.5718 15.7539V17.375C15.5718 17.541 15.6206 17.5996 15.7671 17.5996Z" fill="black" fill-opacity="0.85"/>
</svg>
