<svg width="14" height="22" viewBox="0 0 14 22" fill="none" xmlns="http://www.w3.org/2000/svg">
<path d="M1.75896 21.3799L4.69841 17.8838C4.98161 17.542 5.03044 17.4639 5.14763 17.1026L5.36247 16.4385L3.79021 14.4659L3.31169 16.6729L0.411303 20.1104C-0.506666 21.2139 1.00701 22.2881 1.75896 21.3799ZM8.90739 21.0869C9.51286 22.3077 11.3097 21.5557 10.6554 20.2276L8.66325 16.1944C8.507 15.8916 8.30193 15.5596 8.11638 15.2959L6.85661 13.5088L6.9445 13.2452C7.27654 12.2295 7.40349 11.6241 7.48161 10.6182L7.67693 7.79589C7.77458 6.458 6.98357 5.44238 5.60661 5.44238C4.58122 5.44238 3.8781 5.95996 2.93083 6.88769L1.43669 8.3623C0.948412 8.84082 0.792162 9.23144 0.743334 9.86621L0.567553 12.1709C0.518725 12.7569 0.84099 13.167 1.3781 13.1866C1.92497 13.2256 2.257 12.9034 2.30583 12.2784L2.53044 9.74902L3.24333 9.10449C3.507 8.87011 3.83904 9.02636 3.82927 9.29004L3.67302 11.4287C3.58513 12.5127 3.83904 13.0303 4.58122 13.958L6.56364 16.4385C6.75896 16.6924 6.77849 16.7901 6.86638 16.9463L8.90739 21.0869ZM12.3058 9.25097H10.05L8.63396 7.67871L8.46794 10.0322L9.03435 10.5987C9.34685 10.9112 9.62029 11.0088 10.2062 11.0088H12.3058C12.8918 11.0088 13.2824 10.6768 13.2824 10.1299C13.2824 9.60254 12.882 9.25097 12.3058 9.25097ZM6.70036 4.56347C7.87224 4.56347 8.8195 3.60644 8.8195 2.43457C8.8195 1.25293 7.87224 0.305664 6.70036 0.305664C5.51872 0.305664 4.57146 1.25293 4.57146 2.43457C4.57146 3.60644 5.51872 4.56347 6.70036 4.56347Z" fill="black" fill-opacity="0.85"/>
</svg>
