<?xml version="1.0" encoding="UTF-8"?>
<!--Generator: Apple Native CoreSVG 232.5-->
<!DOCTYPE svg
PUBLIC "-//W3C//DTD SVG 1.1//EN"
       "http://www.w3.org/Graphics/SVG/1.1/DTD/svg11.dtd">
<svg version="1.1" xmlns="http://www.w3.org/2000/svg" xmlns:xlink="http://www.w3.org/1999/xlink" width="17.3501" height="17.6953">
 <g>
  <rect height="17.6953" opacity="0" width="17.3501" x="0" y="0"/>
  <path d="M3.32888 16.4375C3.64919 16.6875 4.05544 16.6016 4.53981 16.25L8.67263 13.2109L12.8133 16.25C13.2976 16.6016 13.6961 16.6875 14.0242 16.4375C14.3445 16.1953 14.4148 15.7969 14.2195 15.2266L12.5867 10.3672L16.7586 7.36719C17.2429 7.02344 17.4383 6.66406 17.3133 6.27344C17.1883 5.89844 16.8211 5.71094 16.2195 5.71875L11.1023 5.75L9.54763 0.867188C9.36013 0.289062 9.07888 0 8.67263 0C8.27419 0 7.99294 0.289062 7.80544 0.867188L6.25075 5.75L1.13356 5.71875C0.532001 5.71094 0.164813 5.89844 0.0398134 6.27344C-0.0929991 6.66406 0.110126 7.02344 0.594501 7.36719L4.76638 10.3672L3.13356 15.2266C2.93825 15.7969 3.00856 16.1953 3.32888 16.4375Z" fill="#ffffff" fill-opacity="0.85"/>
 </g>
</svg>
