<svg width="145" height="37" viewBox="0 0 145 37" fill="none" xmlns="http://www.w3.org/2000/svg">
<path d="M1 36C14.6377 23.553 70.0849 20.9628 129 27.4218" stroke="url(#paint0_linear_1482_3)" stroke-linecap="round"/>
<path d="M10.154 24.09C8.726 24.09 7.484 23.832 6.428 23.316C5.372 22.788 4.562 22.044 3.998 21.084C3.434 20.124 3.152 19.008 3.152 17.736C3.152 15.972 3.482 14.406 4.142 13.038C4.814 11.67 5.72 10.614 6.86 9.87C8 9.114 9.266 8.736 10.658 8.736C11.954 8.736 12.938 9.072 13.61 9.744C14.282 10.404 14.618 11.28 14.618 12.372C14.618 13.104 14.486 13.692 14.222 14.136C13.97 14.58 13.604 14.802 13.124 14.802C12.788 14.802 12.524 14.724 12.332 14.568C12.14 14.412 12.044 14.184 12.044 13.884C12.044 13.776 12.068 13.578 12.116 13.29C12.188 12.93 12.224 12.642 12.224 12.426C12.224 11.334 11.642 10.788 10.478 10.788C9.686 10.788 8.93 11.046 8.21 11.562C7.49 12.078 6.908 12.84 6.464 13.848C6.02 14.844 5.798 16.032 5.798 17.412C5.798 18.852 6.2 19.968 7.004 20.76C7.808 21.54 8.996 21.93 10.568 21.93C11.348 21.93 12.134 21.834 12.926 21.642C13.73 21.438 14.618 21.132 15.59 20.724C15.77 20.652 15.92 20.616 16.04 20.616C16.232 20.616 16.376 20.688 16.472 20.832C16.568 20.976 16.616 21.162 16.616 21.39C16.616 22.122 16.22 22.662 15.428 23.01C14.576 23.382 13.688 23.658 12.764 23.838C11.852 24.006 10.982 24.09 10.154 24.09ZM17.0398 24.09C16.4998 24.09 16.0558 23.844 15.7078 23.352C15.3718 22.848 15.2038 22.224 15.2038 21.48C15.2038 20.58 15.2638 19.758 15.3838 19.014C15.5038 18.258 15.7018 17.46 15.9778 16.62C16.0978 16.26 16.2658 16.002 16.4818 15.846C16.6978 15.69 17.0398 15.612 17.5078 15.612C17.7718 15.612 17.9518 15.654 18.0478 15.738C18.1558 15.822 18.2098 15.948 18.2098 16.116C18.2098 16.212 18.1438 16.536 18.0118 17.088C17.8918 17.532 17.7958 17.934 17.7238 18.294C17.4838 19.554 17.3638 20.394 17.3638 20.814C17.3638 21.066 17.3938 21.246 17.4538 21.354C17.5138 21.45 17.6098 21.498 17.7418 21.498C17.9218 21.498 18.1438 21.318 18.4078 20.958C18.6838 20.598 18.9718 20.052 19.2718 19.32C19.5838 18.588 19.8838 17.688 20.1718 16.62C20.2678 16.26 20.4118 16.002 20.6038 15.846C20.8078 15.69 21.1078 15.612 21.5038 15.612C21.7798 15.612 21.9718 15.648 22.0798 15.72C22.1878 15.78 22.2418 15.9 22.2418 16.08C22.2418 16.38 22.0918 17.202 21.7918 18.546C21.4558 20.082 21.2878 21.03 21.2878 21.39C21.2878 21.618 21.3358 21.798 21.4318 21.93C21.5278 22.05 21.6538 22.11 21.8098 22.11C22.0498 22.11 22.3318 21.966 22.6558 21.678C22.9918 21.378 23.4358 20.898 23.9878 20.238C24.1318 20.07 24.2938 19.986 24.4738 19.986C24.6298 19.986 24.7498 20.058 24.8338 20.202C24.9298 20.346 24.9778 20.544 24.9778 20.796C24.9778 21.276 24.8638 21.648 24.6358 21.912C24.1198 22.548 23.5618 23.07 22.9618 23.478C22.3738 23.886 21.7018 24.09 20.9458 24.09C20.3698 24.09 19.9438 23.868 19.6678 23.424C19.4038 22.98 19.2718 22.356 19.2718 21.552C19.0678 22.368 18.7618 22.998 18.3538 23.442C17.9458 23.874 17.5078 24.09 17.0398 24.09ZM33.1303 19.986C33.2863 19.986 33.4063 20.058 33.4903 20.202C33.5863 20.346 33.6343 20.544 33.6343 20.796C33.6343 21.276 33.5203 21.648 33.2923 21.912C32.7763 22.548 32.2183 23.07 31.6183 23.478C31.0303 23.886 30.3583 24.09 29.6023 24.09C28.9663 24.09 28.4503 23.862 28.0543 23.406C27.3703 23.85 26.6563 24.078 25.9123 24.09C25.7563 26.406 25.4023 28.338 24.8503 29.886C24.2983 31.446 23.4883 32.226 22.4203 32.226C21.7723 32.226 21.2923 31.992 20.9803 31.524C20.6683 31.056 20.5123 30.408 20.5123 29.58C20.5123 28.404 20.7823 27.03 21.3223 25.458C21.8623 23.898 22.6963 22.176 23.8243 20.292C23.8243 18.54 23.8123 17.322 23.7883 16.638C23.7763 16.29 23.9143 16.014 24.2023 15.81C24.4903 15.606 24.8503 15.504 25.2823 15.504C25.5343 15.504 25.7143 15.558 25.8223 15.666C25.9423 15.762 26.0083 15.96 26.0203 16.26C26.0203 16.56 26.0263 16.782 26.0383 16.926C26.4223 16.446 26.8003 16.104 27.1723 15.9C27.5443 15.684 27.9403 15.576 28.3603 15.576C29.0323 15.576 29.5783 15.846 29.9983 16.386C30.4303 16.926 30.6463 17.634 30.6463 18.51C30.6463 19.146 30.5443 19.764 30.3403 20.364C30.1363 20.964 29.8543 21.51 29.4943 22.002C29.7463 22.074 29.9563 22.11 30.1243 22.11C30.5203 22.11 30.8983 21.966 31.2583 21.678C31.6183 21.39 32.0803 20.91 32.6443 20.238C32.7883 20.07 32.9503 19.986 33.1303 19.986ZM26.0023 22.362C26.4343 22.266 26.8303 22.032 27.1903 21.66C27.5623 21.276 27.8563 20.808 28.0723 20.256C28.2883 19.692 28.3963 19.104 28.3963 18.492C28.3963 18.132 28.3243 17.862 28.1803 17.682C28.0363 17.49 27.8443 17.394 27.6043 17.394C27.1723 17.394 26.6503 17.85 26.0383 18.762C26.0263 19.29 26.0203 20.064 26.0203 21.084C26.0203 21.636 26.0143 22.062 26.0023 22.362ZM22.5643 30.462C22.8883 30.462 23.1583 29.754 23.3743 28.338C23.5903 26.934 23.7283 25.182 23.7883 23.082C23.2723 24.282 22.8643 25.428 22.5643 26.52C22.2643 27.612 22.1143 28.53 22.1143 29.274C22.1143 29.658 22.1623 29.952 22.2583 30.156C22.3423 30.36 22.4443 30.462 22.5643 30.462ZM41.3643 18.474C41.5203 18.474 41.6403 18.552 41.7243 18.708C41.8083 18.864 41.8503 19.062 41.8503 19.302C41.8503 19.878 41.6763 20.22 41.3283 20.328C40.6083 20.58 39.8163 20.724 38.9523 20.76C38.7243 21.768 38.2743 22.578 37.6023 23.19C36.9303 23.79 36.1683 24.09 35.3163 24.09C34.5963 24.09 33.9783 23.916 33.4623 23.568C32.9583 23.22 32.5743 22.758 32.3103 22.182C32.0463 21.606 31.9143 20.982 31.9143 20.31C31.9143 19.398 32.0883 18.588 32.4363 17.88C32.7843 17.16 33.2643 16.602 33.8763 16.206C34.4883 15.798 35.1663 15.594 35.9103 15.594C36.8223 15.594 37.5543 15.912 38.1063 16.548C38.6703 17.172 39.0003 17.946 39.0963 18.87C39.6603 18.834 40.3323 18.714 41.1123 18.51C41.2083 18.486 41.2923 18.474 41.3643 18.474ZM35.4603 22.182C35.8443 22.182 36.1743 22.026 36.4503 21.714C36.7383 21.402 36.9303 20.952 37.0263 20.364C36.6543 20.112 36.3663 19.782 36.1623 19.374C35.9703 18.966 35.8743 18.534 35.8743 18.078C35.8743 17.886 35.8923 17.694 35.9283 17.502H35.8383C35.3583 17.502 34.9563 17.736 34.6323 18.204C34.3203 18.66 34.1643 19.308 34.1643 20.148C34.1643 20.808 34.2903 21.312 34.5423 21.66C34.8063 22.008 35.1123 22.182 35.4603 22.182ZM41.5834 24.09C41.1274 24.09 40.8034 23.85 40.6114 23.37C40.4314 22.89 40.3414 22.122 40.3414 21.066C40.3414 19.506 40.5634 18.024 41.0074 16.62C41.1154 16.272 41.2894 16.02 41.5294 15.864C41.7814 15.696 42.1294 15.612 42.5734 15.612C42.8134 15.612 42.9814 15.642 43.0774 15.702C43.1734 15.762 43.2214 15.876 43.2214 16.044C43.2214 16.236 43.1314 16.668 42.9514 17.34C42.8314 17.82 42.7354 18.24 42.6634 18.6C42.5914 18.96 42.5314 19.404 42.4834 19.932C42.8794 18.9 43.3234 18.06 43.8154 17.412C44.3074 16.764 44.7874 16.302 45.2554 16.026C45.7354 15.75 46.1734 15.612 46.5694 15.612C47.3494 15.612 47.7394 16.002 47.7394 16.782C47.7394 17.25 47.6074 18.096 47.3434 19.32C47.1154 20.364 47.0014 21.054 47.0014 21.39C47.0014 21.87 47.1754 22.11 47.5234 22.11C47.7634 22.11 48.0454 21.966 48.3694 21.678C48.7054 21.378 49.1494 20.898 49.7014 20.238C49.8454 20.07 50.0074 19.986 50.1874 19.986C50.3434 19.986 50.4634 20.058 50.5474 20.202C50.6434 20.346 50.6914 20.544 50.6914 20.796C50.6914 21.276 50.5774 21.648 50.3494 21.912C49.8334 22.548 49.2754 23.07 48.6754 23.478C48.0874 23.886 47.4154 24.09 46.6594 24.09C46.0474 24.09 45.5854 23.916 45.2734 23.568C44.9614 23.208 44.8054 22.692 44.8054 22.02C44.8054 21.684 44.8894 21.084 45.0574 20.22C45.2134 19.464 45.2914 18.942 45.2914 18.654C45.2914 18.462 45.2254 18.366 45.0934 18.366C44.9374 18.366 44.7154 18.57 44.4274 18.978C44.1514 19.374 43.8634 19.902 43.5634 20.562C43.2754 21.222 43.0414 21.918 42.8614 22.65C42.7294 23.214 42.5734 23.598 42.3934 23.802C42.2254 23.994 41.9554 24.09 41.5834 24.09ZM57.2631 19.986C57.4191 19.986 57.5391 20.058 57.6231 20.202C57.7191 20.346 57.7671 20.544 57.7671 20.796C57.7671 21.276 57.6531 21.648 57.4251 21.912C56.9811 22.452 56.3511 22.95 55.5351 23.406C54.7311 23.862 53.8671 24.09 52.9431 24.09C51.6831 24.09 50.7051 23.748 50.0091 23.064C49.3131 22.38 48.9651 21.444 48.9651 20.256C48.9651 19.428 49.1391 18.66 49.4871 17.952C49.8351 17.232 50.3151 16.662 50.9271 16.242C51.5511 15.822 52.2531 15.612 53.0331 15.612C53.7291 15.612 54.2871 15.822 54.7071 16.242C55.1271 16.65 55.3371 17.208 55.3371 17.916C55.3371 18.744 55.0371 19.458 54.4371 20.058C53.8491 20.646 52.8471 21.114 51.4311 21.462C51.7311 22.014 52.3011 22.29 53.1411 22.29C53.6811 22.29 54.2931 22.104 54.9771 21.732C55.6731 21.348 56.2731 20.85 56.7771 20.238C56.9211 20.07 57.0831 19.986 57.2631 19.986ZM52.7271 17.376C52.2831 17.376 51.9051 17.634 51.5931 18.15C51.2931 18.666 51.1431 19.29 51.1431 20.022V20.058C51.8511 19.89 52.4091 19.638 52.8171 19.302C53.2251 18.966 53.4291 18.576 53.4291 18.132C53.4291 17.904 53.3631 17.724 53.2311 17.592C53.1111 17.448 52.9431 17.376 52.7271 17.376ZM59.6495 24.486C59.0255 24.486 58.5455 24.342 58.2095 24.054C57.8855 23.766 57.7235 23.442 57.7235 23.082C57.7235 22.77 57.8375 22.5 58.0655 22.272C58.2935 22.044 58.6295 21.93 59.0735 21.93C59.2295 21.93 59.4095 21.948 59.6135 21.984C59.8295 22.008 59.9915 22.026 60.0995 22.038C60.0875 21.726 60.0155 21.432 59.8835 21.156C59.7635 20.88 59.6075 20.616 59.4155 20.364C59.2235 20.1 59.0435 19.872 58.8755 19.68C58.5035 20.388 58.1315 20.976 57.7595 21.444C57.3995 21.912 57.0035 22.356 56.5715 22.776C56.3555 22.992 56.1275 23.1 55.8875 23.1C55.6955 23.1 55.5395 23.034 55.4195 22.902C55.2995 22.758 55.2395 22.584 55.2395 22.38C55.2395 22.14 55.3235 21.918 55.4915 21.714L55.7255 21.426C56.3855 20.61 56.8835 19.938 57.2195 19.41C57.4355 19.062 57.6515 18.648 57.8675 18.168C58.0955 17.688 58.3895 17.034 58.7495 16.206C58.9775 15.678 59.4515 15.414 60.1715 15.414C60.5075 15.414 60.7415 15.444 60.8735 15.504C61.0055 15.564 61.0715 15.66 61.0715 15.792C61.0715 15.864 61.0475 15.978 60.9995 16.134C60.9515 16.29 60.8855 16.446 60.8015 16.602C60.5855 17.034 60.4775 17.4 60.4775 17.7C60.4775 17.88 60.5375 18.078 60.6575 18.294C60.7895 18.51 60.9875 18.78 61.2515 19.104C61.6355 19.608 61.9235 20.04 62.1155 20.4C62.3195 20.748 62.4215 21.132 62.4215 21.552C62.4215 22.056 62.3015 22.536 62.0615 22.992C61.8335 23.436 61.5095 23.796 61.0895 24.072C60.6695 24.348 60.1895 24.486 59.6495 24.486ZM78.3732 19.986C78.5292 19.986 78.6492 20.058 78.7332 20.202C78.8292 20.346 78.8772 20.544 78.8772 20.796C78.8772 21.276 78.7632 21.648 78.5352 21.912C78.0432 22.512 77.5032 23.028 76.9152 23.46C76.3272 23.88 75.7452 24.09 75.1692 24.09C74.2572 24.09 73.5612 23.556 73.0812 22.488C72.5772 23.124 72.1332 23.55 71.7492 23.766C71.3772 23.982 70.9392 24.09 70.4352 24.09C69.7032 24.09 69.0972 23.82 68.6172 23.28C68.1492 22.728 67.9152 22.014 67.9152 21.138C67.9152 20.178 68.1192 19.29 68.5272 18.474C68.9352 17.646 69.4932 16.974 70.2012 16.458C70.9212 15.93 71.7252 15.618 72.6132 15.522C72.8412 13.194 73.2732 11.208 73.9092 9.564C74.5572 7.908 75.4032 7.08 76.4472 7.08C76.9632 7.08 77.3892 7.314 77.7252 7.782C78.0732 8.25 78.2472 8.958 78.2472 9.906C78.2472 11.25 77.9172 12.822 77.2572 14.622C76.5972 16.422 75.7152 18.27 74.6112 20.166C74.6592 20.862 74.7612 21.36 74.9172 21.66C75.0852 21.96 75.2952 22.11 75.5472 22.11C75.8712 22.11 76.2012 21.966 76.5372 21.678C76.8732 21.39 77.3232 20.91 77.8872 20.238C78.0312 20.07 78.1932 19.986 78.3732 19.986ZM76.2492 8.844C76.0212 8.844 75.7932 9.252 75.5652 10.068C75.3372 10.872 75.1392 11.928 74.9712 13.236C74.8152 14.544 74.7012 15.912 74.6292 17.34C75.9732 14.412 76.6452 12.06 76.6452 10.284C76.6452 9.828 76.6032 9.474 76.5192 9.222C76.4472 8.97 76.3572 8.844 76.2492 8.844ZM71.0652 22.272C71.2932 22.272 71.5212 22.182 71.7492 22.002C71.9772 21.81 72.2652 21.462 72.6132 20.958C72.4932 20.31 72.4332 19.584 72.4332 18.78C72.4332 18.492 72.4452 18.024 72.4692 17.376C71.8092 17.58 71.2572 18.024 70.8132 18.708C70.3812 19.38 70.1652 20.13 70.1652 20.958C70.1652 21.834 70.4652 22.272 71.0652 22.272ZM85.4408 19.986C85.5968 19.986 85.7168 20.058 85.8008 20.202C85.8968 20.346 85.9448 20.544 85.9448 20.796C85.9448 21.276 85.8308 21.648 85.6028 21.912C85.1588 22.452 84.5288 22.95 83.7128 23.406C82.9088 23.862 82.0448 24.09 81.1208 24.09C79.8608 24.09 78.8828 23.748 78.1868 23.064C77.4908 22.38 77.1428 21.444 77.1428 20.256C77.1428 19.428 77.3168 18.66 77.6648 17.952C78.0128 17.232 78.4928 16.662 79.1048 16.242C79.7288 15.822 80.4308 15.612 81.2108 15.612C81.9068 15.612 82.4648 15.822 82.8848 16.242C83.3048 16.65 83.5148 17.208 83.5148 17.916C83.5148 18.744 83.2148 19.458 82.6148 20.058C82.0268 20.646 81.0248 21.114 79.6088 21.462C79.9088 22.014 80.4788 22.29 81.3188 22.29C81.8588 22.29 82.4708 22.104 83.1548 21.732C83.8508 21.348 84.4508 20.85 84.9548 20.238C85.0988 20.07 85.2608 19.986 85.4408 19.986ZM80.9048 17.376C80.4608 17.376 80.0828 17.634 79.7708 18.15C79.4708 18.666 79.3208 19.29 79.3208 20.022V20.058C80.0288 19.89 80.5868 19.638 80.9948 19.302C81.4028 18.966 81.6068 18.576 81.6068 18.132C81.6068 17.904 81.5408 17.724 81.4088 17.592C81.2888 17.448 81.1208 17.376 80.9048 17.376ZM87.9172 24.09C86.7412 24.09 85.8232 23.76 85.1632 23.1C84.5152 22.428 84.1912 21.546 84.1912 20.454C84.1912 19.482 84.3832 18.63 84.7672 17.898C85.1512 17.166 85.6492 16.602 86.2612 16.206C86.8732 15.81 87.5152 15.612 88.1872 15.612C88.8472 15.612 89.3572 15.81 89.7172 16.206C90.0892 16.59 90.2752 17.088 90.2752 17.7C90.2752 18.204 90.1612 18.63 89.9332 18.978C89.7172 19.326 89.4292 19.5 89.0692 19.5C88.8412 19.5 88.6552 19.446 88.5112 19.338C88.3792 19.23 88.3132 19.08 88.3132 18.888C88.3132 18.804 88.3252 18.708 88.3492 18.6C88.3732 18.492 88.3912 18.414 88.4032 18.366C88.4632 18.186 88.4932 18.018 88.4932 17.862C88.4932 17.706 88.4512 17.586 88.3672 17.502C88.2952 17.418 88.1872 17.376 88.0432 17.376C87.7672 17.376 87.5092 17.502 87.2692 17.754C87.0292 17.994 86.8372 18.324 86.6932 18.744C86.5492 19.164 86.4772 19.626 86.4772 20.13C86.4772 21.522 87.0832 22.218 88.2952 22.218C88.7872 22.218 89.3152 22.056 89.8792 21.732C90.4552 21.396 91.0192 20.898 91.5712 20.238C91.7152 20.07 91.8772 19.986 92.0572 19.986C92.2132 19.986 92.3332 20.058 92.4172 20.202C92.5132 20.346 92.5612 20.544 92.5612 20.796C92.5612 21.252 92.4472 21.624 92.2192 21.912C91.6552 22.608 90.9772 23.148 90.1852 23.532C89.4052 23.904 88.6492 24.09 87.9172 24.09ZM92.9422 24.09C92.4022 24.09 91.9582 23.844 91.6102 23.352C91.2742 22.848 91.1062 22.224 91.1062 21.48C91.1062 20.58 91.1662 19.758 91.2862 19.014C91.4062 18.258 91.6042 17.46 91.8802 16.62C92.0002 16.26 92.1682 16.002 92.3842 15.846C92.6002 15.69 92.9422 15.612 93.4102 15.612C93.6742 15.612 93.8542 15.654 93.9502 15.738C94.0582 15.822 94.1122 15.948 94.1122 16.116C94.1122 16.212 94.0462 16.536 93.9142 17.088C93.7942 17.532 93.6982 17.934 93.6262 18.294C93.3862 19.554 93.2662 20.394 93.2662 20.814C93.2662 21.066 93.2962 21.246 93.3562 21.354C93.4162 21.45 93.5122 21.498 93.6442 21.498C93.8242 21.498 94.0462 21.318 94.3102 20.958C94.5862 20.598 94.8742 20.052 95.1742 19.32C95.4862 18.588 95.7862 17.688 96.0742 16.62C96.1702 16.26 96.3142 16.002 96.5062 15.846C96.7102 15.69 97.0102 15.612 97.4062 15.612C97.6822 15.612 97.8742 15.648 97.9822 15.72C98.0902 15.78 98.1442 15.9 98.1442 16.08C98.1442 16.38 97.9942 17.202 97.6942 18.546C97.3582 20.082 97.1902 21.03 97.1902 21.39C97.1902 21.618 97.2382 21.798 97.3342 21.93C97.4302 22.05 97.5562 22.11 97.7122 22.11C97.9522 22.11 98.2342 21.966 98.5582 21.678C98.8942 21.378 99.3382 20.898 99.8902 20.238C100.034 20.07 100.196 19.986 100.376 19.986C100.532 19.986 100.652 20.058 100.736 20.202C100.832 20.346 100.88 20.544 100.88 20.796C100.88 21.276 100.766 21.648 100.538 21.912C100.022 22.548 99.4642 23.07 98.8642 23.478C98.2762 23.886 97.6042 24.09 96.8482 24.09C96.2722 24.09 95.8462 23.868 95.5702 23.424C95.3062 22.98 95.1742 22.356 95.1742 21.552C94.9702 22.368 94.6642 22.998 94.2562 23.442C93.8482 23.874 93.4102 24.09 92.9422 24.09ZM107.449 19.986C107.605 19.986 107.725 20.058 107.809 20.202C107.905 20.346 107.953 20.544 107.953 20.796C107.953 21.276 107.839 21.648 107.611 21.912C107.167 22.452 106.537 22.95 105.721 23.406C104.917 23.862 104.053 24.09 103.129 24.09C101.869 24.09 100.891 23.748 100.195 23.064C99.4986 22.38 99.1506 21.444 99.1506 20.256C99.1506 19.428 99.3246 18.66 99.6726 17.952C100.021 17.232 100.501 16.662 101.113 16.242C101.737 15.822 102.439 15.612 103.219 15.612C103.915 15.612 104.473 15.822 104.893 16.242C105.313 16.65 105.523 17.208 105.523 17.916C105.523 18.744 105.223 19.458 104.623 20.058C104.035 20.646 103.033 21.114 101.617 21.462C101.917 22.014 102.487 22.29 103.327 22.29C103.867 22.29 104.479 22.104 105.163 21.732C105.859 21.348 106.459 20.85 106.963 20.238C107.107 20.07 107.269 19.986 107.449 19.986ZM102.913 17.376C102.469 17.376 102.091 17.634 101.779 18.15C101.479 18.666 101.329 19.29 101.329 20.022V20.058C102.037 19.89 102.595 19.638 103.003 19.302C103.411 18.966 103.615 18.576 103.615 18.132C103.615 17.904 103.549 17.724 103.417 17.592C103.297 17.448 103.129 17.376 102.913 17.376ZM107.765 24.09C107.309 24.09 106.985 23.85 106.793 23.37C106.613 22.89 106.523 22.122 106.523 21.066C106.523 19.506 106.745 18.024 107.189 16.62C107.297 16.272 107.471 16.02 107.711 15.864C107.963 15.696 108.311 15.612 108.755 15.612C108.995 15.612 109.163 15.642 109.259 15.702C109.355 15.762 109.403 15.876 109.403 16.044C109.403 16.236 109.313 16.668 109.133 17.34C109.013 17.82 108.917 18.24 108.845 18.6C108.773 18.96 108.713 19.404 108.665 19.932C109.061 18.9 109.505 18.06 109.997 17.412C110.489 16.764 110.969 16.302 111.437 16.026C111.917 15.75 112.355 15.612 112.751 15.612C113.531 15.612 113.921 16.002 113.921 16.782C113.921 17.25 113.789 18.096 113.525 19.32C113.297 20.364 113.183 21.054 113.183 21.39C113.183 21.87 113.357 22.11 113.705 22.11C113.945 22.11 114.227 21.966 114.551 21.678C114.887 21.378 115.331 20.898 115.883 20.238C116.027 20.07 116.189 19.986 116.369 19.986C116.525 19.986 116.645 20.058 116.729 20.202C116.825 20.346 116.873 20.544 116.873 20.796C116.873 21.276 116.759 21.648 116.531 21.912C116.015 22.548 115.457 23.07 114.857 23.478C114.269 23.886 113.597 24.09 112.841 24.09C112.229 24.09 111.767 23.916 111.455 23.568C111.143 23.208 110.987 22.692 110.987 22.02C110.987 21.684 111.071 21.084 111.239 20.22C111.395 19.464 111.473 18.942 111.473 18.654C111.473 18.462 111.407 18.366 111.275 18.366C111.119 18.366 110.897 18.57 110.609 18.978C110.333 19.374 110.045 19.902 109.745 20.562C109.457 21.222 109.223 21.918 109.043 22.65C108.911 23.214 108.755 23.598 108.575 23.802C108.407 23.994 108.137 24.09 107.765 24.09ZM123.445 19.986C123.601 19.986 123.721 20.058 123.805 20.202C123.901 20.346 123.949 20.544 123.949 20.796C123.949 21.276 123.835 21.648 123.607 21.912C123.091 22.548 122.527 23.07 121.915 23.478C121.303 23.886 120.601 24.09 119.809 24.09C117.361 24.09 116.137 22.368 116.137 18.924C116.137 18.396 116.155 17.862 116.191 17.322H115.489C115.129 17.322 114.883 17.256 114.751 17.124C114.631 16.992 114.571 16.782 114.571 16.494C114.571 15.822 114.841 15.486 115.381 15.486H116.407C116.611 14.166 116.923 12.96 117.343 11.868C117.763 10.776 118.267 9.906 118.855 9.258C119.455 8.61 120.097 8.286 120.781 8.286C121.285 8.286 121.681 8.508 121.969 8.952C122.257 9.396 122.401 9.954 122.401 10.626C122.401 12.486 121.621 14.106 120.061 15.486H122.077C122.269 15.486 122.407 15.528 122.491 15.612C122.575 15.696 122.617 15.852 122.617 16.08C122.617 16.908 121.939 17.322 120.583 17.322H118.387C118.363 17.922 118.351 18.39 118.351 18.726C118.351 19.974 118.495 20.85 118.783 21.354C119.083 21.858 119.551 22.11 120.187 22.11C120.703 22.11 121.159 21.954 121.555 21.642C121.951 21.33 122.419 20.862 122.959 20.238C123.103 20.07 123.265 19.986 123.445 19.986ZM120.295 10.014C120.115 10.014 119.911 10.242 119.683 10.698C119.467 11.142 119.257 11.766 119.053 12.57C118.861 13.362 118.699 14.244 118.567 15.216C119.275 14.604 119.803 13.92 120.151 13.164C120.511 12.396 120.691 11.7 120.691 11.076C120.691 10.368 120.559 10.014 120.295 10.014ZM125.525 24.09C124.817 24.09 124.211 23.916 123.707 23.568C123.215 23.208 122.843 22.74 122.591 22.164C122.339 21.588 122.213 20.97 122.213 20.31C122.213 19.398 122.381 18.588 122.717 17.88C123.065 17.16 123.533 16.602 124.121 16.206C124.709 15.798 125.369 15.594 126.101 15.594C126.809 15.594 127.415 15.774 127.919 16.134C128.423 16.482 128.801 16.944 129.053 17.52C129.305 18.096 129.431 18.714 129.431 19.374C129.431 20.286 129.257 21.102 128.909 21.822C128.561 22.53 128.087 23.088 127.487 23.496C126.899 23.892 126.245 24.09 125.525 24.09ZM125.723 22.146C126.131 22.146 126.473 21.924 126.749 21.48C127.037 21.036 127.181 20.388 127.181 19.536C127.181 18.876 127.061 18.378 126.821 18.042C126.581 17.706 126.293 17.538 125.957 17.538C125.525 17.538 125.165 17.76 124.877 18.204C124.601 18.636 124.463 19.284 124.463 20.148C124.463 20.832 124.583 21.336 124.823 21.66C125.063 21.984 125.363 22.146 125.723 22.146Z" fill="url(#paint1_linear_1482_3)"/>
<defs>
<linearGradient id="paint0_linear_1482_3" x1="65" y1="24" x2="65" y2="36" gradientUnits="userSpaceOnUse">
<stop stop-color="#02AAC5"/>
<stop offset="1" stop-color="#01A9C4"/>
</linearGradient>
<linearGradient id="paint1_linear_1482_3" x1="73.4402" y1="0" x2="73.4402" y2="37" gradientUnits="userSpaceOnUse">
<stop stop-color="#0189C4"/>
<stop offset="1" stop-color="#01BCC4"/>
</linearGradient>
</defs>
</svg>
