<svg width="23" height="22" viewBox="0 0 23 22" fill="none" xmlns="http://www.w3.org/2000/svg">
<g clip-path="url(#clip0_2456_1617)">
<path d="M6.96436 21.6377C7.44288 21.6377 7.77491 21.3838 8.37061 20.8564L11.7397 17.8584H18.0093C20.9194 17.8584 22.4819 16.2471 22.4819 13.3857V5.90528C22.4819 3.04395 20.9194 1.43262 18.0093 1.43262H5.43116C2.521 1.43262 0.958496 3.03418 0.958496 5.90528V13.3857C0.958496 16.2568 2.521 17.8584 5.43116 17.8584H5.89991V20.3974C5.89991 21.1494 6.28077 21.6377 6.96436 21.6377ZM7.36475 19.8506V17.0185C7.36475 16.4912 7.15967 16.2861 6.63233 16.2861H5.43116C3.4585 16.2861 2.53077 15.2803 2.53077 13.376V5.90528C2.53077 4.00098 3.4585 3.00489 5.43116 3.00489H18.0093C19.9722 3.00489 20.9097 4.00098 20.9097 5.90528V13.376C20.9097 15.2803 19.9722 16.2861 18.0093 16.2861H11.6812C11.1343 16.2861 10.8608 16.3642 10.4897 16.7451L7.36475 19.8506Z" fill="black" fill-opacity="0.85"/>
<path d="M6.69091 6.9502H16.6323C16.9448 6.9502 17.189 6.70606 17.189 6.38379C17.189 6.08106 16.9448 5.82715 16.6323 5.82715H6.69091C6.37841 5.82715 6.12451 6.08106 6.12451 6.38379C6.12451 6.70606 6.37841 6.9502 6.69091 6.9502ZM6.69091 10.1338H16.6323C16.9448 10.1338 17.189 9.87989 17.189 9.55762C17.189 9.25489 16.9448 9.00098 16.6323 9.00098H6.69091C6.37841 9.00098 6.12451 9.25489 6.12451 9.55762C6.12451 9.87989 6.37841 10.1338 6.69091 10.1338ZM6.69091 13.3076H13.1558C13.4683 13.3076 13.7124 13.0635 13.7124 12.751C13.7124 12.4287 13.4683 12.1748 13.1558 12.1748H6.69091C6.37841 12.1748 6.12451 12.4287 6.12451 12.751C6.12451 13.0635 6.37841 13.3076 6.69091 13.3076Z" fill="black" fill-opacity="0.85"/>
</g>
<defs>
<clipPath id="clip0_2456_1617">
<rect width="21.5234" height="21.4551" fill="white" transform="translate(0.958496 0.182617)"/>
</clipPath>
</defs>
</svg>
