<svg width="17" height="10" viewBox="0 0 17 10" fill="none" xmlns="http://www.w3.org/2000/svg">
<path d="M10.7769 2.01367H16.1089C16.4507 2.01367 16.7144 1.75 16.7144 1.40821C16.7144 1.07617 16.4507 0.8125 16.1089 0.8125H10.7769C10.4253 0.8125 10.1616 1.07617 10.1616 1.40821C10.1616 1.75 10.4253 2.01367 10.7769 2.01367ZM10.7769 5.8418H16.1089C16.4507 5.8418 16.7144 5.56836 16.7144 5.22657C16.7144 4.89453 16.4507 4.64063 16.1089 4.64063H10.7769C10.4253 4.64063 10.1616 4.89453 10.1616 5.22657C10.1616 5.56836 10.4253 5.8418 10.7769 5.8418ZM10.7769 9.66019H16.1089C16.4507 9.66019 16.7144 9.40629 16.7144 9.07419C16.7144 8.73239 16.4507 8.45899 16.1089 8.45899H10.7769C10.4253 8.45899 10.1616 8.73239 10.1616 9.07419C10.1616 9.40629 10.4253 9.66019 10.7769 9.66019ZM0.601079 9.66019H8.228C8.5503 9.66019 8.7065 9.44529 8.7065 9.15239C8.7065 8.23439 7.3296 5.8711 4.40967 5.8711C1.48975 5.8711 0.122559 8.23439 0.122559 9.15239C0.122559 9.44529 0.278809 9.66019 0.601079 9.66019ZM4.40967 5.1875C5.60108 5.19727 6.54834 4.19141 6.54834 2.85352C6.54834 1.60352 5.60108 0.568359 4.40967 0.568359C3.22803 0.568359 2.271 1.60352 2.271 2.85352C2.271 4.19141 3.22803 5.1875 4.40967 5.1875Z" fill="black" fill-opacity="0.85"/>
</svg>
