<svg width="12" height="9" viewBox="0 0 12 9" fill="none" xmlns="http://www.w3.org/2000/svg">
<path d="M0.690912 1.9502H10.6323C10.9448 1.9502 11.189 1.70606 11.189 1.38379C11.189 1.08106 10.9448 0.827148 10.6323 0.827148H0.690912C0.378412 0.827148 0.124512 1.08106 0.124512 1.38379C0.124512 1.70606 0.378412 1.9502 0.690912 1.9502ZM0.690912 5.13379H10.6323C10.9448 5.13379 11.189 4.87989 11.189 4.55762C11.189 4.25489 10.9448 4.00098 10.6323 4.00098H0.690912C0.378412 4.00098 0.124512 4.25489 0.124512 4.55762C0.124512 4.87989 0.378412 5.13379 0.690912 5.13379ZM0.690912 8.30762H7.15579C7.46829 8.30762 7.71239 8.06352 7.71239 7.75102C7.71239 7.42872 7.46829 7.17482 7.15579 7.17482H0.690912C0.378412 7.17482 0.124512 7.42872 0.124512 7.75102C0.124512 8.06352 0.378412 8.30762 0.690912 8.30762Z" fill="black" fill-opacity="0.85"/>
</svg>
